<svg xmlns="http://www.w3.org/2000/svg" width="135.021" height="45.099" viewBox="0 0 135.021 45.099">
  <g id="logo" transform="translate(0 0)">
    <path id="Path_34" data-name="Path 34" d="M27.563,27.523a17.269,17.269,0,0,1-1.14,6.33,15.013,15.013,0,0,1-3.146,4.954,13.741,13.741,0,0,1-4.836,3.224,15.77,15.77,0,0,1-6.134,1.14A17.854,17.854,0,0,1,9.083,42.9L6.959,51.468H0L7.864,18.755a41.592,41.592,0,0,1,4.325-1.022,27.752,27.752,0,0,1,5.269-.433,12.147,12.147,0,0,1,4.561.786,8.721,8.721,0,0,1,3.146,2.2,8.841,8.841,0,0,1,1.809,3.263A12.93,12.93,0,0,1,27.563,27.523ZM10.419,37.235a10.19,10.19,0,0,0,2.005.2,8.312,8.312,0,0,0,3.342-.668,7.471,7.471,0,0,0,2.6-1.927,8.968,8.968,0,0,0,1.651-2.949,11.758,11.758,0,0,0,.59-3.814,6.474,6.474,0,0,0-.9-3.46A3.4,3.4,0,0,0,16.593,23.2a12.81,12.81,0,0,0-2.831.275Z" transform="translate(0 -10.498)" fill="#fff"/>
    <path id="Path_35" data-name="Path 35" d="M87.93,23.866c-.629-.157-1.258-.315-1.887-.433a12.3,12.3,0,0,0-2.713-.2,9.854,9.854,0,0,0-1.455.118,7.878,7.878,0,0,0-1.337.275L75.977,42.7H68.9l5.7-23.552c1.337-.433,2.87-.865,4.561-1.258a25.156,25.156,0,0,1,5.7-.59,22.528,22.528,0,0,1,2.634.2,10.64,10.64,0,0,1,2.516.668Z" transform="translate(-41.809 -10.498)" fill="#fff"/>
    <path id="Path_36" data-name="Path 36" d="M182.341,18.891c.55-.157,1.14-.354,1.769-.55a21.55,21.55,0,0,1,2.163-.55c.786-.157,1.691-.315,2.713-.433a29.164,29.164,0,0,1,3.381-.157c3.7,0,6.252,1.062,7.628,3.224,1.415,2.163,1.651,5.072.747,8.807l-3.224,13.447H190.48l3.106-13.172a18.167,18.167,0,0,0,.433-2.4,5.024,5.024,0,0,0-.039-2.045,2.416,2.416,0,0,0-.865-1.415,3.382,3.382,0,0,0-2.084-.55,13.709,13.709,0,0,0-2.792.275l-4.6,19.266H176.6Z" transform="translate(-107.163 -10.437)" fill="#fff"/>
    <path id="Path_37" data-name="Path 37" d="M246.061,1.14,253.414,0l-1.809,7.313h7.864l-1.415,5.78h-7.824l-2.084,8.689a8.1,8.1,0,0,0-.315,2.045,3.663,3.663,0,0,0,.236,1.651,1.927,1.927,0,0,0,1.022,1.062,4.974,4.974,0,0,0,2.123.393,13.485,13.485,0,0,0,2.2-.2c.708-.157,1.415-.354,2.162-.59l.511,5.387a28.416,28.416,0,0,1-3.067.9,18.678,18.678,0,0,1-3.932.393,10.664,10.664,0,0,1-5.072-.983,5.7,5.7,0,0,1-2.556-2.634,8.55,8.55,0,0,1-.668-3.853,24.984,24.984,0,0,1,.668-4.6Z" transform="translate(-146.113)" fill="#fff"/>
    <path id="Path_38" data-name="Path 38" d="M292.669,43.186a11.4,11.4,0,0,1-4.364-.747,8.576,8.576,0,0,1-3.067-2.123,9.259,9.259,0,0,1-1.809-3.224,13.77,13.77,0,0,1-.629-4.128,18.92,18.92,0,0,1,.9-5.662,17.237,17.237,0,0,1,2.713-5.111,14.47,14.47,0,0,1,4.4-3.735A12.334,12.334,0,0,1,296.8,17a11.331,11.331,0,0,1,4.325.747,7.939,7.939,0,0,1,3.067,2.123A9.26,9.26,0,0,1,306,23.094a12.628,12.628,0,0,1,.629,4.128,18.923,18.923,0,0,1-.9,5.662A17.041,17.041,0,0,1,303.089,38a14.2,14.2,0,0,1-4.364,3.7A11.728,11.728,0,0,1,292.669,43.186Zm3.5-20.249a4.531,4.531,0,0,0-2.752.9,8.055,8.055,0,0,0-2.005,2.28,11.109,11.109,0,0,0-1.219,2.988,12.685,12.685,0,0,0-.393,3.106,7.513,7.513,0,0,0,.747,3.7,2.862,2.862,0,0,0,2.752,1.337,4.532,4.532,0,0,0,2.752-.9,6.954,6.954,0,0,0,1.966-2.28,11.1,11.1,0,0,0,1.219-2.988,12.685,12.685,0,0,0,.393-3.106,7.513,7.513,0,0,0-.747-3.7A2.869,2.869,0,0,0,296.168,22.937Z" transform="translate(-171.606 -10.316)" fill="#fff"/>
    <path id="Path_39" data-name="Path 39" d="M106.8,44.917c.708-.55,1.533-1.258,2.516-2.045,1.73-1.455,4.718-2.674,8.178-4.089a67.511,67.511,0,0,0,11.4-5.544c4.522-2.91,7.235-9,8.532-12.739a51.7,51.7,0,0,1-9.437,4.443,68.229,68.229,0,0,0-10.852,5.111C111.518,33.515,108.255,40.71,106.8,44.917Z" transform="translate(-64.807 -12.44)" fill="#fff"/>
    <g id="Group_7" data-name="Group 7" transform="translate(45.413 6.684)">
      <path id="Path_40" data-name="Path 40" d="M121.28,26.043a72.1,72.1,0,0,1,11.167-5.269q1.946-.767,3.775-1.533a8.457,8.457,0,0,0-2.438-1.494A11.331,11.331,0,0,0,129.458,17a12.014,12.014,0,0,0-5.976,1.455,14.952,14.952,0,0,0-4.4,3.735,16.771,16.771,0,0,0-2.713,5.111,17.5,17.5,0,0,0-.865,4.168A21.7,21.7,0,0,1,121.28,26.043Z" transform="translate(-115.5 -17)" fill="#fff"/>
      <path id="Path_41" data-name="Path 41" d="M139.968,52.381a73.106,73.106,0,0,1-11.756,5.7c-1.927.786-3.7,1.533-5.111,2.241a8.769,8.769,0,0,0,2.477,1.533,11.265,11.265,0,0,0,4.364.747,12.26,12.26,0,0,0,6.094-1.455,13.341,13.341,0,0,0,4.364-3.7,16.188,16.188,0,0,0,2.634-5.111A20.41,20.41,0,0,0,143.782,49,19.44,19.44,0,0,1,139.968,52.381Z" transform="translate(-120.112 -36.418)" fill="#fff"/>
    </g>
    <g id="Group_8" data-name="Group 8" transform="translate(48.519 35.23)">
      <path id="Path_42" data-name="Path 42" d="M130.084,100.6V97.184a.757.757,0,0,0-.826-.865,1.423,1.423,0,0,0-1.1.629V100.6h-1.415V97.184a.757.757,0,0,0-.826-.865,1.423,1.423,0,0,0-1.1.629V100.6H123.4V95.218h1.416v.708a2.426,2.426,0,0,1,1.769-.826,1.41,1.41,0,0,1,1.494.983,2.334,2.334,0,0,1,1.848-.983,1.436,1.436,0,0,1,1.573,1.651v3.893h-1.415Z" transform="translate(-123.4 -92.937)" fill="#fff"/>
      <path id="Path_43" data-name="Path 43" d="M160.417,100.544v-.59a2.271,2.271,0,0,1-1.73.708,1.814,1.814,0,0,1-1.887-1.809,1.725,1.725,0,0,1,1.887-1.73,2.249,2.249,0,0,1,1.73.668v-.668c0-.55-.472-.9-1.18-.9a2.415,2.415,0,0,0-1.573.629l-.55-.983A3.5,3.5,0,0,1,159.474,95c1.258,0,2.359.511,2.359,2.045v3.5Zm0-1.3v-.668a1.4,1.4,0,0,0-1.14-.472.845.845,0,1,0,0,1.651A1.63,1.63,0,0,0,160.417,99.246Z" transform="translate(-143.668 -92.877)" fill="#fff"/>
      <path id="Path_44" data-name="Path 44" d="M183.3,100.6V95.218h1.415v.747a2.39,2.39,0,0,1,1.73-.865v1.376a1.212,1.212,0,0,0-.393-.039,1.807,1.807,0,0,0-1.337.629v3.578H183.3Z" transform="translate(-159.748 -92.937)" fill="#fff"/>
      <path id="Path_45" data-name="Path 45" d="M207.2,97.571l-1.416-2.084-.668.708v1.376H203.7V90.1h1.415v4.482l2.045-2.4h1.73l-2.123,2.438,2.2,2.949Z" transform="translate(-172.127 -89.903)" fill="#fff"/>
      <path id="Path_46" data-name="Path 46" d="M227.9,97.831A2.762,2.762,0,0,1,230.692,95a2.71,2.71,0,0,1,2.713,2.949V98.3h-4.01a1.462,1.462,0,0,0,1.573,1.219,2.226,2.226,0,0,0,1.415-.511l.629.944a3.287,3.287,0,0,1-2.241.747A2.745,2.745,0,0,1,227.9,97.831Zm2.831-1.651a1.3,1.3,0,0,0-1.337,1.14h2.674A1.221,1.221,0,0,0,230.731,96.18Z" transform="translate(-186.812 -92.877)" fill="#fff"/>
      <path id="Path_47" data-name="Path 47" d="M254,97.083V94.252h-.9V92.994h.9V91.5h1.415v1.494h1.1v1.258h-1.1V96.69a.52.52,0,0,0,.511.59.876.876,0,0,0,.511-.157l.315,1.1a1.675,1.675,0,0,1-1.18.354A1.373,1.373,0,0,1,254,97.083Z" transform="translate(-202.103 -90.753)" fill="#fff"/>
      <path id="Path_48" data-name="Path 48" d="M274.1,90.426a.831.831,0,0,1,.826-.826.84.84,0,0,1,.865.826.846.846,0,1,1-1.691,0Zm.118,6.841V91.88h1.415v5.426h-1.415Z" transform="translate(-214.847 -89.6)" fill="#fff"/>
      <path id="Path_49" data-name="Path 49" d="M295.417,100.6V97.341c0-.747-.393-1.022-.983-1.022a1.552,1.552,0,0,0-1.219.629V100.6H291.8V95.218h1.415v.708A2.58,2.58,0,0,1,295.1,95.1a1.585,1.585,0,0,1,1.769,1.73v3.814h-1.455Z" transform="translate(-225.587 -92.937)" fill="#fff"/>
      <path id="Path_50" data-name="Path 50" d="M317.675,102.02,318.3,101a2.194,2.194,0,0,0,1.691.668,1.32,1.32,0,0,0,1.494-1.376v-.511a2.085,2.085,0,0,1-1.691.826c-1.337,0-2.4-.944-2.4-2.752,0-1.769,1.022-2.752,2.4-2.752a2.085,2.085,0,0,1,1.691.826v-.708H322.9v5.033c0,2.045-1.573,2.556-2.91,2.556A3.272,3.272,0,0,1,317.675,102.02Zm3.814-3.3V96.948a1.528,1.528,0,0,0-1.219-.59,1.5,1.5,0,0,0,0,2.988A1.84,1.84,0,0,0,321.489,98.717Z" transform="translate(-241.121 -92.937)" fill="#fff"/>
    </g>
  </g>
</svg>
